<svg width="23" height="14" viewBox="0 0 23 14" fill="none" xmlns="http://www.w3.org/2000/svg">
<g clip-path="url(#clip0_201_77)">
<path d="M23 4.67463H0V0.390989C0 0.188222 0.177576 0.0238037 0.39657 0.0238037H22.6034C22.8224 0.0238037 23 0.188222 23 0.390989L23 4.67463Z" fill="#FAB446"/>
<path d="M22.6034 13.9762H0.39657C0.177576 13.9762 0 13.8118 0 13.609V9.32541H23V13.609C23 13.8118 22.8224 13.9762 22.6034 13.9762Z" fill="#73AF00"/>
<path d="M23 4.67455H0V9.32508H23V4.67455Z" fill="#F5F5F5"/>
<path d="M11.5 8.97354C10.3246 8.97354 9.36853 8.08827 9.36853 7.00002C9.36853 5.91178 10.3246 5.0265 11.5 5.0265C12.6753 5.0265 13.6314 5.91178 13.6314 7.00002C13.6314 8.08827 12.6753 8.97354 11.5 8.97354ZM11.5 5.39365C10.5432 5.39365 9.76505 6.11417 9.76505 7.00002C9.76505 7.88587 10.5432 8.60639 11.5 8.60639C12.4567 8.60639 13.2349 7.88587 13.2349 7.00002C13.2349 6.11417 12.4567 5.39365 11.5 5.39365Z" fill="#41479B"/>
<path d="M11.5 7.22375C11.6334 7.22375 11.7416 7.12358 11.7416 7.00002C11.7416 6.87646 11.6334 6.77629 11.5 6.77629C11.3665 6.77629 11.2583 6.87646 11.2583 7.00002C11.2583 7.12358 11.3665 7.22375 11.5 7.22375Z" fill="#41479B"/>
<path d="M11.5 7.03359L10.8859 7.09099L9.56682 7.03359V6.96646L10.8859 6.90906L11.5 6.96646V7.03359Z" fill="#41479B"/>
<path d="M11.5 7.03359L12.1141 7.09099L13.4331 7.03359V6.96646L12.1141 6.90906L11.5 6.96646V7.03359Z" fill="#41479B"/>
<path d="M11.4637 7.00002L11.4017 6.43144L11.4637 5.2101H11.5362L11.5982 6.43144L11.5362 7.00002H11.4637Z" fill="#41479B"/>
<path d="M11.4637 7.00002L11.4017 7.56859L11.4637 8.78994H11.5362L11.5982 7.56859L11.5362 7.00002H11.4637Z" fill="#41479B"/>
<path d="M11.4744 7.02373L10.9963 6.66233L10.1074 5.75809L10.1587 5.71063L11.1353 6.53368L11.5256 6.97631L11.4744 7.02373Z" fill="#41479B"/>
<path d="M11.4744 7.02374L11.8647 7.46637L12.8413 8.28942L12.8926 8.24196L12.0036 7.33772L11.5256 6.97632L11.4744 7.02374Z" fill="#41479B"/>
<path d="M11.4744 6.97631L11.8647 6.53368L12.8413 5.71063L12.8926 5.75809L12.0036 6.66233L11.5256 7.02373L11.4744 6.97631Z" fill="#41479B"/>
<path d="M11.4744 6.97632L10.9963 7.33772L10.1074 8.24196L10.1587 8.28942L11.1353 7.46637L11.5256 7.02374L11.4744 6.97632Z" fill="#41479B"/>
<path d="M11.5139 7.03105L10.9702 7.30166L9.72787 7.71601L9.7001 7.65399L10.8951 7.13358L11.4861 6.96899L11.5139 7.03105Z" fill="#41479B"/>
<path d="M11.5139 7.03106L12.1049 6.86647L13.2999 6.34606L13.2721 6.28404L12.0297 6.69839L11.4861 6.969L11.5139 7.03106Z" fill="#41479B"/>
<path d="M11.4665 7.01288L11.1742 6.50952L10.7267 5.35922L10.7937 5.33351L11.3557 6.43993L11.5335 6.98717L11.4665 7.01288Z" fill="#41479B"/>
<path d="M11.4665 7.01287L11.6442 7.56011L12.2063 8.66654L12.2733 8.64083L11.8257 7.49053L11.5335 6.98717L11.4665 7.01287Z" fill="#41479B"/>
<path d="M11.4861 7.03106L10.8951 6.86647L9.7001 6.34606L9.72787 6.28404L10.9702 6.69839L11.5139 6.969L11.4861 7.03106Z" fill="#41479B"/>
<path d="M11.4861 7.03105L12.0297 7.30166L13.2721 7.71601L13.2999 7.65399L12.1049 7.13358L11.5139 6.96899L11.4861 7.03105Z" fill="#41479B"/>
<path d="M11.4665 6.98717L11.6442 6.43993L12.2063 5.33351L12.2733 5.35922L11.8257 6.50952L11.5335 7.01288L11.4665 6.98717Z" fill="#41479B"/>
<path d="M11.4665 6.98717L11.1742 7.49053L10.7267 8.64083L10.7937 8.66654L11.3557 7.56011L11.5335 7.01287L11.4665 6.98717Z" fill="#41479B"/>
<path d="M11.5 7.30183C11.68 7.30183 11.8259 7.16671 11.8259 7.00003C11.8259 6.83335 11.68 6.69823 11.5 6.69823C11.32 6.69823 11.174 6.83335 11.174 7.00003C11.174 7.16671 11.32 7.30183 11.5 7.30183Z" fill="#F5F5F5"/>
<path d="M11.5 7.18099C11.6079 7.18099 11.6954 7.09997 11.6954 7.00002C11.6954 6.90007 11.6079 6.81905 11.5 6.81905C11.392 6.81905 11.3045 6.90007 11.3045 7.00002C11.3045 7.09997 11.392 7.18099 11.5 7.18099Z" fill="#41479B"/>
</g>
<defs>
<clipPath id="clip0_201_77">
<rect width="23" height="14" fill="white"/>
</clipPath>
</defs>
</svg>
