<svg width="38" height="38" viewBox="0 0 38 38" fill="none" xmlns="http://www.w3.org/2000/svg">
<path d="M19 2.30078C9.77461 2.30078 2.30078 9.77461 2.30078 19C2.30078 28.2254 9.77461 35.6992 19 35.6992C28.2254 35.6992 35.6992 28.2254 35.6992 19C35.6992 9.77461 28.2254 2.30078 19 2.30078ZM23.7945 12.773C23.7945 12.773 22.0281 12.7582 21.5828 12.7582C20.9148 12.7582 20.4695 13.3371 20.4695 13.9234V16.3801H23.7945L23.416 19.7273H20.4324V28.2773H17.0555V19.7719H14.2055V16.343H17.1C17.1 16.343 17.1 15.1406 17.1 13.107C17.1 11.3035 19.1039 9.71523 20.4992 9.71523C20.707 9.71523 23.7945 9.74492 23.7945 9.74492V12.773Z" fill="#BDBDBD"/>
</svg>
