<svg width="24" height="24" viewBox="0 0 24 24" fill="none" xmlns="http://www.w3.org/2000/svg">
<g clip-path="url(#clip0_201_66)">
<path d="M20.317 4.36979C18.7874 3.66793 17.147 3.15081 15.4319 2.85461C15.4007 2.84889 15.3695 2.86318 15.3534 2.89173C15.1424 3.26697 14.9087 3.75643 14.7451 4.14118C12.9004 3.865 11.0652 3.865 9.25833 4.14118C9.09464 3.7479 8.85248 3.26697 8.64056 2.89173C8.62449 2.86412 8.59327 2.84982 8.56205 2.85461C6.84792 3.14982 5.20758 3.66695 3.67692 4.36979C3.66366 4.37551 3.65231 4.38503 3.64477 4.3974C0.533392 9.04576 -0.318983 13.5799 0.0991416 18.0578C0.101017 18.0797 0.113345 18.1006 0.13036 18.1139C2.18316 19.6215 4.17169 20.5367 6.12323 21.1433C6.15445 21.1528 6.18755 21.1414 6.20742 21.1157C6.66905 20.4853 7.08056 19.8205 7.43339 19.1215C7.4542 19.0806 7.43433 19.032 7.39177 19.0158C6.73903 18.7682 6.11752 18.4663 5.51963 18.1235C5.47233 18.0959 5.46853 18.0282 5.51208 17.9958C5.63789 17.9016 5.76375 17.8035 5.88389 17.7044C5.90564 17.6863 5.93592 17.6825 5.96147 17.6939C9.88922 19.4872 14.1415 19.4872 18.0229 17.6939C18.0484 17.6815 18.0787 17.6854 18.1014 17.7034C18.2216 17.8025 18.3474 17.9015 18.4741 17.9958C18.5176 18.0282 18.5148 18.0958 18.4675 18.1234C17.8696 18.4729 17.2481 18.7682 16.5945 19.0148C16.5519 19.031 16.533 19.0805 16.5538 19.1215C16.9142 19.8195 17.3258 20.4842 17.7788 21.1147C17.7978 21.1414 17.8318 21.1528 17.863 21.1433C19.824 20.5367 21.8126 19.6214 23.8654 18.1139C23.8834 18.1006 23.8947 18.0805 23.8966 18.0587C24.397 12.8817 23.0584 8.38478 20.3482 4.39829C20.3416 4.38503 20.3303 4.37551 20.317 4.36979ZM8.02003 15.3312C6.83752 15.3312 5.86313 14.2456 5.86313 12.9122C5.86313 11.5789 6.81858 10.4933 8.02003 10.4933C9.23086 10.4933 10.1958 11.5885 10.1769 12.9122C10.1769 14.2456 9.22139 15.3312 8.02003 15.3312ZM15.9947 15.3312C14.8123 15.3312 13.8379 14.2456 13.8379 12.9122C13.8379 11.5789 14.7933 10.4933 15.9947 10.4933C17.2056 10.4933 18.1705 11.5885 18.1516 12.9122C18.1516 14.2456 17.2057 15.3312 15.9947 15.3312Z" fill="#1F1F1F"/>
</g>
<defs>
<clipPath id="clip0_201_66">
<rect width="24" height="24" fill="white"/>
</clipPath>
</defs>
</svg>
